{
  "asset": {
    "generator": "Khronos glTF Blender I/O v4.5.47",
    "version": "2.0"
  },
  "scene": 0,
  "scenes": [
    {
      "name": "Scene",
      "nodes": [
        0
      ]
    }
  ],
  "nodes": [
    {
      "mesh": 0,
      "name": "brass_blowtorch"
    }
  ],
  "materials": [
    {
      "doubleSided": true,
      "name": "brass_blowtorch",
      "normalTexture": {
        "index": 0
      },
      "pbrMetallicRoughness": {
        "baseColorTexture": {
          "index": 1
        },
        "metallicRoughnessTexture": {
          "index": 2
        }
      }
    }
  ],
  "meshes": [
    {
      "name": "Cylinder.017",
      "primitives": [
        {
          "attributes": {
            "POSITION": 0,
            "NORMAL": 1,
            "TEXCOORD_0": 2
          },
          "indices": 3,
          "material": 0
        }
      ]
    }
  ],
  "textures": [
    {
      "sampler": 0,
      "source": 0
    },
    {
      "sampler": 0,
      "source": 1
    },
    {
      "sampler": 0,
      "source": 2
    }
  ],
  "images": [
    {
      "mimeType": "image/jpeg",
      "name": "brass_blowtorch_nor_gl",
      "uri": "textures/brass_blowtorch_nor_gl_1k.jpg"
    },
    {
      "mimeType": "image/jpeg",
      "name": "brass_blowtorch_diff",
      "uri": "textures/brass_blowtorch_diff_1k.jpg"
    },
    {
      "mimeType": "image/jpeg",
      "name": "brass_blowtorch_metal-brass_blowtorch_rough",
      "uri": "textures/brass_blowtorch_arm_1k.jpg"
    }
  ],
  "accessors": [
    {
      "bufferView": 0,
      "componentType": 5126,
      "count": 8060,
      "max": [
        0.06472184509038925,
        0.21061663329601288,
        0.1452479511499405
      ],
      "min": [
        -0.06472184509038925,
        0,
        -0.11403953284025192
      ],
      "type": "VEC3"
    },
    {
      "bufferView": 1,
      "componentType": 5126,
      "count": 8060,
      "type": "VEC3"
    },
    {
      "bufferView": 2,
      "componentType": 5126,
      "count": 8060,
      "type": "VEC2"
    },
    {
      "bufferView": 3,
      "componentType": 5123,
      "count": 35250,
      "type": "SCALAR"
    }
  ],
  "bufferViews": [
    {
      "buffer": 0,
      "byteLength": 96720,
      "byteOffset": 0,
      "target": 34962
    },
    {
      "buffer": 0,
      "byteLength": 96720,
      "byteOffset": 96720,
      "target": 34962
    },
    {
      "buffer": 0,
      "byteLength": 64480,
      "byteOffset": 193440,
      "target": 34962
    },
    {
      "buffer": 0,
      "byteLength": 70500,
      "byteOffset": 257920,
      "target": 34963
    }
  ],
  "samplers": [
    {
      "magFilter": 9729,
      "minFilter": 9987
    }
  ],
  "buffers": [
    {
      "byteLength": 328420,
      "uri": "brass_blowtorch.bin"
    }
  ]
}